G04 EAGLE Gerber X2 export*
%TF.Part,Single*%
%TF.FileFunction,Copper,L2,Bot,Mixed*%
%TF.FilePolarity,Positive*%
%TF.GenerationSoftware,Autodesk,EAGLE,9.2.2*%
%TF.CreationDate,2018-11-13T01:57:23Z*%
G75*
%MOMM*%
%FSLAX34Y34*%
%LPD*%
%INBottom Copper*%
%AMOC8*
5,1,8,0,0,1.08239X$1,22.5*%
G01*
%ADD10C,2.184400*%
%ADD11C,1.524000*%
%ADD12P,1.649562X8X202.500000*%
%ADD13C,0.756400*%
%ADD14C,0.304800*%
%ADD15C,0.457200*%

G36*
X647883Y111773D02*
X647883Y111773D01*
X648013Y111775D01*
X648096Y111793D01*
X648179Y111801D01*
X648304Y111837D01*
X648431Y111863D01*
X648509Y111896D01*
X648590Y111919D01*
X648706Y111978D01*
X648826Y112028D01*
X648896Y112074D01*
X648971Y112112D01*
X649074Y112191D01*
X649183Y112262D01*
X649243Y112321D01*
X649310Y112372D01*
X649396Y112469D01*
X649489Y112559D01*
X649538Y112628D01*
X649594Y112691D01*
X649661Y112802D01*
X649736Y112908D01*
X649771Y112985D01*
X649814Y113057D01*
X649859Y113178D01*
X649913Y113297D01*
X649933Y113378D01*
X649962Y113457D01*
X649984Y113585D01*
X650015Y113712D01*
X650022Y113813D01*
X650033Y113878D01*
X650032Y113944D01*
X650039Y114046D01*
X650039Y543054D01*
X650027Y543183D01*
X650025Y543313D01*
X650007Y543396D01*
X649999Y543479D01*
X649963Y543604D01*
X649937Y543731D01*
X649904Y543809D01*
X649881Y543890D01*
X649822Y544006D01*
X649772Y544126D01*
X649726Y544196D01*
X649688Y544271D01*
X649609Y544374D01*
X649538Y544483D01*
X649479Y544543D01*
X649428Y544610D01*
X649331Y544696D01*
X649241Y544789D01*
X649172Y544838D01*
X649109Y544894D01*
X648998Y544961D01*
X648892Y545036D01*
X648815Y545071D01*
X648743Y545114D01*
X648622Y545159D01*
X648503Y545213D01*
X648422Y545233D01*
X648343Y545262D01*
X648215Y545284D01*
X648088Y545315D01*
X647987Y545322D01*
X647922Y545333D01*
X647856Y545332D01*
X647754Y545339D01*
X595867Y545339D01*
X595696Y545323D01*
X595524Y545313D01*
X595484Y545303D01*
X595442Y545299D01*
X595277Y545252D01*
X595110Y545210D01*
X595072Y545193D01*
X595031Y545181D01*
X594878Y545104D01*
X594722Y545032D01*
X594688Y545007D01*
X594650Y544988D01*
X594514Y544884D01*
X594374Y544784D01*
X594345Y544754D01*
X594311Y544728D01*
X594197Y544600D01*
X594078Y544476D01*
X594055Y544441D01*
X594027Y544409D01*
X593939Y544262D01*
X593845Y544118D01*
X593829Y544079D01*
X593807Y544043D01*
X593747Y543882D01*
X593682Y543724D01*
X593674Y543682D01*
X593659Y543643D01*
X593630Y543473D01*
X593596Y543305D01*
X593595Y543263D01*
X593588Y543222D01*
X593591Y543050D01*
X593589Y542878D01*
X593596Y542837D01*
X593596Y542795D01*
X593632Y542627D01*
X593661Y542457D01*
X593676Y542418D01*
X593684Y542377D01*
X593750Y542219D01*
X593811Y542057D01*
X593832Y542021D01*
X593849Y541982D01*
X593943Y541839D01*
X594032Y541692D01*
X594064Y541655D01*
X594083Y541626D01*
X594140Y541567D01*
X594251Y541438D01*
X624137Y511552D01*
X625531Y510159D01*
X626111Y508758D01*
X626111Y342221D01*
X626121Y342112D01*
X626121Y342003D01*
X626141Y341900D01*
X626151Y341795D01*
X626181Y341691D01*
X626201Y341584D01*
X626240Y341486D01*
X626269Y341385D01*
X626318Y341288D01*
X626358Y341186D01*
X626414Y341097D01*
X626462Y341004D01*
X626528Y340918D01*
X626586Y340825D01*
X626658Y340748D01*
X626722Y340665D01*
X626803Y340593D01*
X626878Y340513D01*
X626962Y340451D01*
X627041Y340381D01*
X627134Y340325D01*
X627222Y340260D01*
X627341Y340200D01*
X627407Y340161D01*
X627455Y340143D01*
X627521Y340109D01*
X629351Y339352D01*
X632852Y335851D01*
X634747Y331276D01*
X634747Y326324D01*
X632852Y321749D01*
X629351Y318248D01*
X624776Y316353D01*
X619824Y316353D01*
X615249Y318248D01*
X611748Y321749D01*
X609853Y326324D01*
X609853Y331276D01*
X611748Y335851D01*
X615249Y339352D01*
X617079Y340109D01*
X617175Y340160D01*
X617276Y340202D01*
X617363Y340260D01*
X617456Y340309D01*
X617541Y340377D01*
X617633Y340437D01*
X617708Y340510D01*
X617790Y340575D01*
X617861Y340658D01*
X617939Y340734D01*
X618000Y340820D01*
X618068Y340899D01*
X618123Y340994D01*
X618186Y341083D01*
X618229Y341178D01*
X618282Y341269D01*
X618318Y341372D01*
X618363Y341471D01*
X618388Y341573D01*
X618423Y341673D01*
X618439Y341780D01*
X618465Y341886D01*
X618474Y342019D01*
X618486Y342095D01*
X618484Y342147D01*
X618489Y342221D01*
X618489Y505475D01*
X618481Y505563D01*
X618482Y505651D01*
X618461Y505775D01*
X618449Y505900D01*
X618425Y505985D01*
X618410Y506072D01*
X618366Y506190D01*
X618331Y506311D01*
X618291Y506389D01*
X618260Y506472D01*
X618195Y506580D01*
X618138Y506692D01*
X618085Y506762D01*
X618039Y506837D01*
X617928Y506966D01*
X617878Y507030D01*
X617852Y507054D01*
X617820Y507091D01*
X589641Y535270D01*
X589573Y535326D01*
X589512Y535389D01*
X589409Y535462D01*
X589312Y535542D01*
X589235Y535585D01*
X589163Y535636D01*
X589048Y535688D01*
X588938Y535749D01*
X588855Y535776D01*
X588774Y535813D01*
X588652Y535843D01*
X588532Y535882D01*
X588445Y535894D01*
X588359Y535915D01*
X588189Y535927D01*
X588109Y535938D01*
X588073Y535936D01*
X588025Y535939D01*
X377175Y535939D01*
X377087Y535931D01*
X376999Y535932D01*
X376875Y535911D01*
X376750Y535899D01*
X376665Y535875D01*
X376578Y535860D01*
X376460Y535816D01*
X376339Y535781D01*
X376261Y535741D01*
X376178Y535710D01*
X376070Y535645D01*
X375958Y535588D01*
X375888Y535535D01*
X375813Y535489D01*
X375684Y535378D01*
X375620Y535328D01*
X375596Y535302D01*
X375559Y535270D01*
X360080Y519791D01*
X360024Y519723D01*
X359961Y519662D01*
X359888Y519559D01*
X359808Y519462D01*
X359765Y519385D01*
X359714Y519313D01*
X359662Y519198D01*
X359601Y519088D01*
X359574Y519005D01*
X359537Y518924D01*
X359507Y518802D01*
X359468Y518682D01*
X359456Y518595D01*
X359435Y518509D01*
X359423Y518339D01*
X359412Y518259D01*
X359414Y518223D01*
X359411Y518175D01*
X359411Y512641D01*
X359419Y512553D01*
X359418Y512465D01*
X359439Y512341D01*
X359451Y512215D01*
X359475Y512131D01*
X359490Y512044D01*
X359534Y511926D01*
X359569Y511805D01*
X359609Y511727D01*
X359640Y511644D01*
X359705Y511536D01*
X359762Y511424D01*
X359815Y511354D01*
X359861Y511279D01*
X359972Y511150D01*
X360022Y511085D01*
X360048Y511061D01*
X360080Y511025D01*
X360099Y511006D01*
X360907Y509056D01*
X360907Y506944D01*
X360099Y504994D01*
X358606Y503501D01*
X356656Y502693D01*
X354544Y502693D01*
X352594Y503501D01*
X351101Y504994D01*
X350293Y506944D01*
X350293Y509056D01*
X351101Y511006D01*
X351120Y511025D01*
X351176Y511093D01*
X351239Y511154D01*
X351312Y511257D01*
X351392Y511354D01*
X351435Y511431D01*
X351486Y511503D01*
X351538Y511618D01*
X351599Y511728D01*
X351626Y511811D01*
X351663Y511891D01*
X351693Y512014D01*
X351732Y512133D01*
X351744Y512221D01*
X351765Y512306D01*
X351777Y512476D01*
X351788Y512557D01*
X351786Y512592D01*
X351789Y512641D01*
X351789Y521458D01*
X352369Y522859D01*
X353763Y524252D01*
X370949Y541438D01*
X371058Y541570D01*
X371173Y541699D01*
X371195Y541735D01*
X371221Y541767D01*
X371304Y541917D01*
X371393Y542065D01*
X371408Y542104D01*
X371428Y542141D01*
X371481Y542304D01*
X371541Y542465D01*
X371548Y542507D01*
X371561Y542547D01*
X371584Y542717D01*
X371612Y542886D01*
X371611Y542928D01*
X371617Y542970D01*
X371607Y543142D01*
X371604Y543313D01*
X371595Y543355D01*
X371592Y543397D01*
X371551Y543563D01*
X371516Y543731D01*
X371499Y543770D01*
X371489Y543811D01*
X371417Y543967D01*
X371351Y544126D01*
X371328Y544161D01*
X371311Y544199D01*
X371211Y544339D01*
X371117Y544483D01*
X371088Y544513D01*
X371063Y544547D01*
X370939Y544666D01*
X370820Y544789D01*
X370785Y544814D01*
X370755Y544843D01*
X370611Y544937D01*
X370471Y545036D01*
X370433Y545053D01*
X370397Y545076D01*
X370239Y545142D01*
X370082Y545213D01*
X370041Y545223D01*
X370003Y545239D01*
X369835Y545274D01*
X369667Y545315D01*
X369619Y545318D01*
X369584Y545325D01*
X369503Y545327D01*
X369333Y545339D01*
X88646Y545339D01*
X88517Y545327D01*
X88387Y545325D01*
X88304Y545307D01*
X88221Y545299D01*
X88096Y545263D01*
X87969Y545237D01*
X87891Y545204D01*
X87810Y545181D01*
X87694Y545122D01*
X87574Y545072D01*
X87504Y545026D01*
X87429Y544988D01*
X87326Y544909D01*
X87217Y544838D01*
X87157Y544779D01*
X87090Y544728D01*
X87004Y544631D01*
X86911Y544541D01*
X86862Y544472D01*
X86806Y544409D01*
X86739Y544298D01*
X86664Y544192D01*
X86629Y544115D01*
X86586Y544043D01*
X86541Y543922D01*
X86487Y543803D01*
X86467Y543722D01*
X86438Y543643D01*
X86416Y543515D01*
X86385Y543388D01*
X86378Y543287D01*
X86367Y543222D01*
X86368Y543156D01*
X86361Y543054D01*
X86361Y114046D01*
X86373Y113917D01*
X86375Y113787D01*
X86393Y113704D01*
X86401Y113621D01*
X86437Y113496D01*
X86463Y113369D01*
X86496Y113291D01*
X86519Y113210D01*
X86578Y113094D01*
X86628Y112974D01*
X86674Y112904D01*
X86712Y112829D01*
X86791Y112726D01*
X86862Y112617D01*
X86921Y112557D01*
X86972Y112490D01*
X87069Y112404D01*
X87159Y112311D01*
X87228Y112262D01*
X87291Y112206D01*
X87402Y112139D01*
X87508Y112064D01*
X87585Y112029D01*
X87657Y111986D01*
X87778Y111941D01*
X87897Y111887D01*
X87978Y111867D01*
X88057Y111838D01*
X88185Y111816D01*
X88312Y111785D01*
X88413Y111778D01*
X88478Y111767D01*
X88544Y111768D01*
X88646Y111761D01*
X647754Y111761D01*
X647883Y111773D01*
G37*
%LPC*%
G36*
X619824Y141353D02*
X619824Y141353D01*
X615249Y143248D01*
X611748Y146749D01*
X609853Y151324D01*
X609853Y156276D01*
X611748Y160851D01*
X615249Y164352D01*
X619824Y166247D01*
X624776Y166247D01*
X627367Y165173D01*
X627471Y165141D01*
X627572Y165100D01*
X627675Y165079D01*
X627775Y165048D01*
X627883Y165035D01*
X627990Y165013D01*
X628095Y165012D01*
X628199Y165000D01*
X628308Y165008D01*
X628417Y165006D01*
X628521Y165024D01*
X628625Y165032D01*
X628731Y165060D01*
X628838Y165079D01*
X628937Y165116D01*
X629038Y165143D01*
X629136Y165190D01*
X629238Y165228D01*
X629328Y165283D01*
X629422Y165328D01*
X629510Y165393D01*
X629603Y165450D01*
X629704Y165537D01*
X629766Y165582D01*
X629801Y165620D01*
X629857Y165669D01*
X637632Y173444D01*
X637688Y173511D01*
X637751Y173573D01*
X637824Y173676D01*
X637904Y173772D01*
X637947Y173849D01*
X637998Y173922D01*
X638050Y174036D01*
X638111Y174146D01*
X638138Y174230D01*
X638175Y174310D01*
X638205Y174433D01*
X638244Y174552D01*
X638256Y174639D01*
X638277Y174725D01*
X638289Y174895D01*
X638300Y174976D01*
X638298Y175011D01*
X638301Y175059D01*
X638301Y183417D01*
X638283Y183609D01*
X638269Y183801D01*
X638263Y183821D01*
X638261Y183842D01*
X638208Y184028D01*
X638158Y184213D01*
X638149Y184232D01*
X638143Y184253D01*
X638056Y184425D01*
X637972Y184598D01*
X637960Y184615D01*
X637950Y184634D01*
X637833Y184786D01*
X637718Y184941D01*
X637703Y184956D01*
X637690Y184972D01*
X637546Y185101D01*
X637405Y185232D01*
X637387Y185243D01*
X637371Y185257D01*
X637206Y185356D01*
X637043Y185458D01*
X637023Y185466D01*
X637005Y185477D01*
X636824Y185544D01*
X636645Y185614D01*
X636625Y185618D01*
X636605Y185625D01*
X636414Y185657D01*
X636225Y185693D01*
X636204Y185693D01*
X636184Y185696D01*
X635991Y185692D01*
X635798Y185692D01*
X635778Y185688D01*
X635757Y185687D01*
X635568Y185648D01*
X635379Y185612D01*
X635359Y185604D01*
X635339Y185599D01*
X635161Y185526D01*
X634982Y185455D01*
X634964Y185443D01*
X634944Y185435D01*
X634783Y185329D01*
X634621Y185227D01*
X634605Y185212D01*
X634588Y185201D01*
X634448Y185066D01*
X634308Y184935D01*
X634296Y184918D01*
X634281Y184904D01*
X634169Y184746D01*
X634055Y184591D01*
X634045Y184570D01*
X634034Y184555D01*
X634005Y184491D01*
X633905Y184291D01*
X632852Y181749D01*
X629351Y178248D01*
X624776Y176353D01*
X619824Y176353D01*
X615249Y178248D01*
X611748Y181749D01*
X609971Y186041D01*
X609920Y186137D01*
X609878Y186238D01*
X609820Y186325D01*
X609771Y186418D01*
X609703Y186503D01*
X609643Y186595D01*
X609570Y186670D01*
X609505Y186752D01*
X609422Y186823D01*
X609346Y186901D01*
X609261Y186962D01*
X609181Y187030D01*
X609087Y187085D01*
X608997Y187148D01*
X608902Y187191D01*
X608811Y187244D01*
X608708Y187280D01*
X608609Y187325D01*
X608507Y187350D01*
X608408Y187385D01*
X608300Y187401D01*
X608194Y187427D01*
X608061Y187436D01*
X607985Y187448D01*
X607934Y187446D01*
X607859Y187451D01*
X468637Y187451D01*
X331864Y324224D01*
X331797Y324280D01*
X331735Y324343D01*
X331632Y324416D01*
X331536Y324496D01*
X331459Y324539D01*
X331386Y324590D01*
X331272Y324642D01*
X331162Y324703D01*
X331078Y324730D01*
X330998Y324767D01*
X330875Y324797D01*
X330756Y324836D01*
X330669Y324848D01*
X330583Y324869D01*
X330413Y324881D01*
X330332Y324892D01*
X330297Y324890D01*
X330249Y324893D01*
X329144Y324893D01*
X327194Y325701D01*
X325701Y327194D01*
X324893Y329144D01*
X324893Y331256D01*
X325701Y333206D01*
X327194Y334699D01*
X329144Y335507D01*
X331256Y335507D01*
X333206Y334699D01*
X334699Y333206D01*
X335507Y331256D01*
X335507Y330151D01*
X335515Y330064D01*
X335514Y329976D01*
X335535Y329852D01*
X335547Y329726D01*
X335571Y329641D01*
X335586Y329555D01*
X335630Y329437D01*
X335665Y329316D01*
X335705Y329237D01*
X335736Y329155D01*
X335801Y329047D01*
X335858Y328935D01*
X335911Y328865D01*
X335957Y328789D01*
X336068Y328660D01*
X336118Y328596D01*
X336144Y328572D01*
X336176Y328536D01*
X470494Y194218D01*
X470561Y194162D01*
X470623Y194099D01*
X470726Y194026D01*
X470822Y193946D01*
X470899Y193903D01*
X470972Y193852D01*
X471086Y193800D01*
X471196Y193739D01*
X471280Y193712D01*
X471360Y193675D01*
X471483Y193645D01*
X471602Y193606D01*
X471689Y193594D01*
X471775Y193573D01*
X471945Y193561D01*
X472026Y193550D01*
X472061Y193552D01*
X472109Y193549D01*
X609268Y193549D01*
X609376Y193559D01*
X609485Y193559D01*
X609589Y193579D01*
X609693Y193589D01*
X609798Y193619D01*
X609905Y193639D01*
X610002Y193678D01*
X610103Y193707D01*
X610201Y193756D01*
X610302Y193796D01*
X610391Y193852D01*
X610485Y193900D01*
X610571Y193966D01*
X610663Y194024D01*
X610740Y194096D01*
X610823Y194160D01*
X610896Y194241D01*
X610976Y194316D01*
X611038Y194400D01*
X611108Y194479D01*
X611164Y194572D01*
X611228Y194660D01*
X611288Y194779D01*
X611328Y194845D01*
X611346Y194893D01*
X611379Y194959D01*
X611748Y195851D01*
X615249Y199352D01*
X619824Y201247D01*
X624776Y201247D01*
X627590Y200081D01*
X627773Y200025D01*
X627957Y199964D01*
X627978Y199962D01*
X627998Y199955D01*
X628189Y199934D01*
X628380Y199909D01*
X628401Y199910D01*
X628422Y199908D01*
X628615Y199922D01*
X628807Y199933D01*
X628827Y199938D01*
X628848Y199940D01*
X629034Y199990D01*
X629221Y200036D01*
X629240Y200045D01*
X629261Y200051D01*
X629434Y200134D01*
X629609Y200215D01*
X629626Y200227D01*
X629645Y200236D01*
X629800Y200351D01*
X629957Y200462D01*
X629972Y200478D01*
X629989Y200490D01*
X630119Y200631D01*
X630253Y200770D01*
X630265Y200788D01*
X630279Y200804D01*
X630381Y200967D01*
X630486Y201128D01*
X630494Y201148D01*
X630506Y201165D01*
X630576Y201345D01*
X630649Y201523D01*
X630653Y201544D01*
X630661Y201563D01*
X630696Y201752D01*
X630736Y201941D01*
X630736Y201962D01*
X630740Y201983D01*
X630739Y202176D01*
X630743Y202368D01*
X630739Y202389D01*
X630739Y202410D01*
X630703Y202599D01*
X630670Y202789D01*
X630663Y202809D01*
X630659Y202830D01*
X630588Y203009D01*
X630520Y203189D01*
X630510Y203207D01*
X630502Y203227D01*
X630399Y203390D01*
X630299Y203555D01*
X630284Y203573D01*
X630274Y203588D01*
X630226Y203639D01*
X630080Y203808D01*
X628486Y205402D01*
X628419Y205458D01*
X628357Y205521D01*
X628255Y205594D01*
X628158Y205674D01*
X628080Y205717D01*
X628008Y205768D01*
X627894Y205820D01*
X627784Y205881D01*
X627700Y205908D01*
X627620Y205945D01*
X627497Y205975D01*
X627378Y206014D01*
X627291Y206026D01*
X627205Y206047D01*
X627035Y206059D01*
X626954Y206070D01*
X626919Y206068D01*
X626871Y206071D01*
X577017Y206071D01*
X458602Y324486D01*
X458534Y324542D01*
X458473Y324606D01*
X458370Y324679D01*
X458273Y324759D01*
X458196Y324801D01*
X458124Y324852D01*
X458009Y324905D01*
X457899Y324965D01*
X457816Y324993D01*
X457735Y325029D01*
X457613Y325059D01*
X457494Y325099D01*
X457406Y325110D01*
X457321Y325131D01*
X457151Y325144D01*
X457070Y325154D01*
X457034Y325152D01*
X456986Y325156D01*
X455882Y325156D01*
X453932Y325964D01*
X452439Y327456D01*
X451631Y329407D01*
X451631Y331518D01*
X452439Y333468D01*
X453932Y334961D01*
X455882Y335769D01*
X457993Y335769D01*
X459944Y334961D01*
X461436Y333468D01*
X462244Y331518D01*
X462244Y330414D01*
X462253Y330326D01*
X462251Y330238D01*
X462272Y330114D01*
X462284Y329989D01*
X462309Y329904D01*
X462324Y329817D01*
X462368Y329699D01*
X462403Y329578D01*
X462442Y329500D01*
X462473Y329417D01*
X462539Y329309D01*
X462595Y329197D01*
X462649Y329127D01*
X462695Y329052D01*
X462806Y328923D01*
X462855Y328858D01*
X462882Y328835D01*
X462914Y328798D01*
X578874Y212838D01*
X578941Y212782D01*
X579003Y212719D01*
X579106Y212646D01*
X579202Y212566D01*
X579279Y212523D01*
X579352Y212472D01*
X579466Y212420D01*
X579576Y212359D01*
X579660Y212332D01*
X579740Y212295D01*
X579863Y212265D01*
X579982Y212226D01*
X580069Y212214D01*
X580155Y212193D01*
X580325Y212181D01*
X580406Y212170D01*
X580441Y212172D01*
X580489Y212169D01*
X610812Y212169D01*
X610983Y212185D01*
X611154Y212195D01*
X611195Y212205D01*
X611237Y212209D01*
X611402Y212256D01*
X611569Y212298D01*
X611607Y212315D01*
X611647Y212327D01*
X611801Y212405D01*
X611957Y212476D01*
X611991Y212501D01*
X612029Y212520D01*
X612165Y212624D01*
X612305Y212724D01*
X612334Y212754D01*
X612367Y212780D01*
X612482Y212908D01*
X612601Y213032D01*
X612624Y213067D01*
X612652Y213099D01*
X612740Y213246D01*
X612834Y213390D01*
X612850Y213429D01*
X612872Y213465D01*
X612931Y213626D01*
X612997Y213785D01*
X613005Y213826D01*
X613020Y213865D01*
X613049Y214035D01*
X613083Y214203D01*
X613084Y214245D01*
X613091Y214286D01*
X613087Y214458D01*
X613090Y214630D01*
X613083Y214671D01*
X613082Y214713D01*
X613047Y214881D01*
X613018Y215051D01*
X613003Y215090D01*
X612994Y215131D01*
X612929Y215290D01*
X612868Y215451D01*
X612846Y215487D01*
X612830Y215526D01*
X612736Y215669D01*
X612647Y215816D01*
X612615Y215853D01*
X612596Y215882D01*
X612539Y215941D01*
X612428Y216070D01*
X611748Y216749D01*
X609853Y221324D01*
X609853Y226276D01*
X611748Y230851D01*
X615249Y234352D01*
X619824Y236247D01*
X624776Y236247D01*
X629351Y234352D01*
X632852Y230851D01*
X634747Y226276D01*
X634747Y221324D01*
X632852Y216750D01*
X630923Y214821D01*
X630840Y214720D01*
X630750Y214627D01*
X630704Y214556D01*
X630650Y214492D01*
X630588Y214378D01*
X630517Y214269D01*
X630484Y214191D01*
X630444Y214118D01*
X630403Y213994D01*
X630354Y213874D01*
X630337Y213792D01*
X630311Y213712D01*
X630294Y213583D01*
X630267Y213456D01*
X630266Y213372D01*
X630255Y213289D01*
X630262Y213159D01*
X630260Y213029D01*
X630275Y212946D01*
X630279Y212862D01*
X630311Y212736D01*
X630333Y212608D01*
X630362Y212529D01*
X630383Y212448D01*
X630437Y212329D01*
X630482Y212208D01*
X630526Y212136D01*
X630561Y212060D01*
X630636Y211954D01*
X630704Y211843D01*
X630771Y211765D01*
X630809Y211712D01*
X630856Y211666D01*
X630923Y211589D01*
X632798Y209713D01*
X644399Y198113D01*
X644399Y171587D01*
X641944Y169132D01*
X634169Y161357D01*
X634099Y161273D01*
X634022Y161196D01*
X633984Y161139D01*
X633954Y161106D01*
X633937Y161078D01*
X633896Y161028D01*
X633844Y160933D01*
X633782Y160843D01*
X633747Y160762D01*
X633734Y160740D01*
X633729Y160725D01*
X633690Y160655D01*
X633656Y160551D01*
X633612Y160451D01*
X633589Y160348D01*
X633588Y160345D01*
X633586Y160340D01*
X633586Y160339D01*
X633557Y160249D01*
X633542Y160141D01*
X633518Y160034D01*
X633515Y159929D01*
X633501Y159825D01*
X633507Y159716D01*
X633503Y159607D01*
X633519Y159504D01*
X633525Y159399D01*
X633552Y159293D01*
X633568Y159185D01*
X633610Y159059D01*
X633629Y158984D01*
X633650Y158937D01*
X633673Y158867D01*
X634747Y156276D01*
X634747Y151324D01*
X632852Y146749D01*
X629351Y143248D01*
X624776Y141353D01*
X619824Y141353D01*
G37*
%LPD*%
%LPC*%
G36*
X341844Y210593D02*
X341844Y210593D01*
X339894Y211401D01*
X338401Y212894D01*
X337593Y214844D01*
X337593Y215949D01*
X337585Y216036D01*
X337586Y216124D01*
X337565Y216248D01*
X337553Y216374D01*
X337529Y216459D01*
X337514Y216545D01*
X337470Y216663D01*
X337435Y216784D01*
X337395Y216863D01*
X337364Y216945D01*
X337299Y217053D01*
X337242Y217165D01*
X337189Y217235D01*
X337143Y217311D01*
X337032Y217440D01*
X336982Y217504D01*
X336956Y217528D01*
X336924Y217564D01*
X202606Y351882D01*
X202539Y351938D01*
X202477Y352001D01*
X202374Y352074D01*
X202278Y352154D01*
X202201Y352197D01*
X202128Y352248D01*
X202014Y352300D01*
X201904Y352361D01*
X201820Y352388D01*
X201740Y352425D01*
X201617Y352455D01*
X201498Y352494D01*
X201411Y352506D01*
X201325Y352527D01*
X201155Y352539D01*
X201074Y352550D01*
X201039Y352548D01*
X200991Y352551D01*
X195903Y352551D01*
X195815Y352543D01*
X195727Y352544D01*
X195603Y352523D01*
X195477Y352511D01*
X195393Y352487D01*
X195306Y352472D01*
X195188Y352428D01*
X195067Y352393D01*
X194989Y352353D01*
X194906Y352322D01*
X194798Y352257D01*
X194686Y352200D01*
X194616Y352147D01*
X194541Y352101D01*
X194412Y351990D01*
X194347Y351940D01*
X194323Y351914D01*
X194287Y351882D01*
X193506Y351101D01*
X191556Y350293D01*
X189444Y350293D01*
X187494Y351101D01*
X186001Y352594D01*
X185193Y354544D01*
X185193Y356656D01*
X186001Y358606D01*
X187494Y360099D01*
X189444Y360907D01*
X191556Y360907D01*
X193506Y360099D01*
X194287Y359318D01*
X194355Y359262D01*
X194416Y359199D01*
X194519Y359126D01*
X194616Y359046D01*
X194693Y359003D01*
X194765Y358952D01*
X194880Y358900D01*
X194990Y358839D01*
X195073Y358812D01*
X195153Y358775D01*
X195276Y358745D01*
X195395Y358706D01*
X195483Y358694D01*
X195568Y358673D01*
X195738Y358661D01*
X195819Y358650D01*
X195854Y358652D01*
X195903Y358649D01*
X204463Y358649D01*
X257763Y305348D01*
X257879Y305252D01*
X257990Y305150D01*
X258044Y305116D01*
X258092Y305076D01*
X258224Y305003D01*
X258352Y304923D01*
X258411Y304900D01*
X258466Y304869D01*
X258609Y304822D01*
X258750Y304767D01*
X258812Y304756D01*
X258872Y304736D01*
X259021Y304717D01*
X259170Y304689D01*
X259233Y304689D01*
X259295Y304681D01*
X259446Y304689D01*
X259597Y304689D01*
X259659Y304701D01*
X259722Y304705D01*
X259868Y304741D01*
X260016Y304770D01*
X260075Y304793D01*
X260136Y304808D01*
X260273Y304871D01*
X260413Y304927D01*
X260467Y304960D01*
X260524Y304987D01*
X260647Y305074D01*
X260775Y305155D01*
X260821Y305198D01*
X260872Y305234D01*
X260977Y305343D01*
X261087Y305446D01*
X261124Y305497D01*
X261168Y305542D01*
X261250Y305669D01*
X261340Y305790D01*
X261373Y305857D01*
X261401Y305900D01*
X261431Y305971D01*
X261490Y306090D01*
X262201Y307806D01*
X263694Y309299D01*
X265644Y310107D01*
X267756Y310107D01*
X269706Y309299D01*
X271199Y307806D01*
X272007Y305856D01*
X272007Y304751D01*
X272015Y304664D01*
X272014Y304576D01*
X272035Y304452D01*
X272047Y304326D01*
X272071Y304241D01*
X272086Y304155D01*
X272130Y304037D01*
X272165Y303916D01*
X272205Y303837D01*
X272236Y303755D01*
X272301Y303647D01*
X272358Y303535D01*
X272411Y303465D01*
X272457Y303389D01*
X272568Y303260D01*
X272618Y303196D01*
X272644Y303172D01*
X272676Y303136D01*
X315836Y259976D01*
X315903Y259920D01*
X315965Y259857D01*
X316068Y259784D01*
X316164Y259704D01*
X316241Y259661D01*
X316314Y259610D01*
X316428Y259558D01*
X316538Y259497D01*
X316622Y259470D01*
X316702Y259433D01*
X316825Y259403D01*
X316944Y259364D01*
X317031Y259352D01*
X317117Y259331D01*
X317287Y259319D01*
X317368Y259308D01*
X317403Y259310D01*
X317451Y259307D01*
X318556Y259307D01*
X320506Y258499D01*
X321999Y257006D01*
X322807Y255056D01*
X322807Y252944D01*
X321999Y250994D01*
X320506Y249501D01*
X318790Y248790D01*
X318656Y248720D01*
X318519Y248657D01*
X318468Y248620D01*
X318412Y248591D01*
X318294Y248497D01*
X318171Y248409D01*
X318128Y248364D01*
X318078Y248324D01*
X317980Y248210D01*
X317875Y248101D01*
X317841Y248048D01*
X317800Y248000D01*
X317725Y247870D01*
X317642Y247743D01*
X317618Y247685D01*
X317587Y247630D01*
X317537Y247488D01*
X317479Y247349D01*
X317467Y247287D01*
X317446Y247227D01*
X317423Y247078D01*
X317393Y246930D01*
X317392Y246867D01*
X317383Y246805D01*
X317388Y246654D01*
X317386Y246503D01*
X317397Y246441D01*
X317399Y246378D01*
X317433Y246231D01*
X317458Y246082D01*
X317480Y246023D01*
X317495Y245962D01*
X317555Y245824D01*
X317608Y245682D01*
X317641Y245628D01*
X317666Y245571D01*
X317751Y245446D01*
X317829Y245317D01*
X317878Y245261D01*
X317907Y245218D01*
X317962Y245164D01*
X318048Y245063D01*
X341236Y221876D01*
X341303Y221820D01*
X341365Y221757D01*
X341468Y221684D01*
X341564Y221604D01*
X341641Y221561D01*
X341714Y221510D01*
X341828Y221458D01*
X341938Y221397D01*
X342022Y221370D01*
X342102Y221333D01*
X342225Y221303D01*
X342344Y221264D01*
X342431Y221252D01*
X342517Y221231D01*
X342687Y221219D01*
X342768Y221208D01*
X342803Y221210D01*
X342851Y221207D01*
X343956Y221207D01*
X345906Y220399D01*
X347399Y218906D01*
X348207Y216956D01*
X348207Y214844D01*
X347399Y212894D01*
X345906Y211401D01*
X343956Y210593D01*
X341844Y210593D01*
G37*
%LPD*%
%LPC*%
G36*
X247037Y130555D02*
X247037Y130555D01*
X241680Y135912D01*
X241680Y143488D01*
X247037Y148845D01*
X253634Y148845D01*
X253722Y148853D01*
X253810Y148852D01*
X253934Y148873D01*
X254059Y148885D01*
X254144Y148909D01*
X254231Y148924D01*
X254349Y148968D01*
X254470Y149003D01*
X254548Y149043D01*
X254631Y149074D01*
X254739Y149139D01*
X254851Y149196D01*
X254921Y149249D01*
X254996Y149295D01*
X255125Y149406D01*
X255189Y149456D01*
X255213Y149482D01*
X255250Y149514D01*
X259045Y153309D01*
X259101Y153377D01*
X259164Y153438D01*
X259237Y153541D01*
X259317Y153638D01*
X259360Y153715D01*
X259411Y153787D01*
X259463Y153902D01*
X259524Y154012D01*
X259551Y154095D01*
X259588Y154176D01*
X259618Y154298D01*
X259657Y154418D01*
X259669Y154505D01*
X259690Y154591D01*
X259702Y154761D01*
X259713Y154841D01*
X259711Y154877D01*
X259714Y154925D01*
X259714Y155540D01*
X259698Y155711D01*
X259688Y155882D01*
X259678Y155923D01*
X259674Y155965D01*
X259627Y156130D01*
X259585Y156297D01*
X259568Y156335D01*
X259556Y156375D01*
X259479Y156528D01*
X259407Y156685D01*
X259382Y156719D01*
X259363Y156756D01*
X259259Y156893D01*
X259159Y157033D01*
X259129Y157062D01*
X259103Y157095D01*
X258975Y157210D01*
X258851Y157329D01*
X258816Y157351D01*
X258784Y157379D01*
X258637Y157468D01*
X258493Y157562D01*
X258454Y157578D01*
X258418Y157600D01*
X258257Y157659D01*
X258098Y157725D01*
X258057Y157733D01*
X258018Y157748D01*
X257848Y157776D01*
X257680Y157811D01*
X257638Y157812D01*
X257597Y157819D01*
X257425Y157815D01*
X257253Y157818D01*
X257212Y157811D01*
X257170Y157810D01*
X257002Y157775D01*
X256832Y157745D01*
X256793Y157731D01*
X256752Y157722D01*
X256593Y157656D01*
X256432Y157596D01*
X256396Y157574D01*
X256357Y157558D01*
X256214Y157464D01*
X256067Y157374D01*
X256064Y157372D01*
X252644Y155955D01*
X249006Y155955D01*
X245645Y157347D01*
X243072Y159920D01*
X241680Y163281D01*
X241680Y166919D01*
X243072Y170280D01*
X245645Y172853D01*
X249006Y174245D01*
X252644Y174245D01*
X256066Y172827D01*
X256074Y172821D01*
X256110Y172799D01*
X256142Y172772D01*
X256292Y172689D01*
X256440Y172600D01*
X256479Y172586D01*
X256516Y172566D01*
X256679Y172512D01*
X256840Y172452D01*
X256882Y172445D01*
X256921Y172432D01*
X257092Y172410D01*
X257261Y172381D01*
X257303Y172382D01*
X257345Y172377D01*
X257516Y172386D01*
X257688Y172390D01*
X257730Y172399D01*
X257771Y172401D01*
X257938Y172442D01*
X258106Y172478D01*
X258145Y172494D01*
X258186Y172504D01*
X258342Y172576D01*
X258501Y172642D01*
X258536Y172665D01*
X258574Y172683D01*
X258714Y172782D01*
X258858Y172877D01*
X258888Y172906D01*
X258922Y172930D01*
X259041Y173054D01*
X259164Y173174D01*
X259189Y173208D01*
X259218Y173238D01*
X259312Y173382D01*
X259411Y173523D01*
X259428Y173561D01*
X259451Y173596D01*
X259517Y173755D01*
X259588Y173911D01*
X259598Y173952D01*
X259614Y173991D01*
X259649Y174159D01*
X259690Y174326D01*
X259693Y174374D01*
X259700Y174409D01*
X259702Y174490D01*
X259714Y174660D01*
X259714Y267350D01*
X259706Y267438D01*
X259707Y267526D01*
X259686Y267650D01*
X259674Y267775D01*
X259650Y267860D01*
X259635Y267947D01*
X259591Y268065D01*
X259556Y268186D01*
X259516Y268264D01*
X259485Y268347D01*
X259420Y268455D01*
X259363Y268567D01*
X259310Y268637D01*
X259264Y268712D01*
X259153Y268841D01*
X259103Y268905D01*
X259077Y268929D01*
X259045Y268966D01*
X254587Y273424D01*
X254519Y273480D01*
X254458Y273543D01*
X254355Y273616D01*
X254258Y273696D01*
X254181Y273739D01*
X254109Y273790D01*
X253994Y273842D01*
X253884Y273903D01*
X253801Y273930D01*
X253720Y273967D01*
X253598Y273997D01*
X253478Y274036D01*
X253391Y274048D01*
X253305Y274069D01*
X253135Y274081D01*
X253055Y274092D01*
X253019Y274090D01*
X252971Y274093D01*
X252944Y274093D01*
X250994Y274901D01*
X249501Y276394D01*
X248693Y278344D01*
X248693Y280456D01*
X249501Y282406D01*
X250994Y283899D01*
X252944Y284707D01*
X255056Y284707D01*
X257006Y283899D01*
X258499Y282406D01*
X259307Y280456D01*
X259307Y280429D01*
X259315Y280341D01*
X259314Y280253D01*
X259335Y280129D01*
X259347Y280004D01*
X259371Y279919D01*
X259386Y279832D01*
X259430Y279714D01*
X259465Y279593D01*
X259505Y279515D01*
X259536Y279432D01*
X259601Y279324D01*
X259658Y279212D01*
X259711Y279142D01*
X259757Y279067D01*
X259868Y278938D01*
X259918Y278874D01*
X259944Y278850D01*
X259976Y278813D01*
X266756Y272034D01*
X267336Y270633D01*
X267336Y151642D01*
X266756Y150241D01*
X260639Y144125D01*
X260583Y144057D01*
X260520Y143996D01*
X260447Y143893D01*
X260367Y143796D01*
X260324Y143719D01*
X260273Y143647D01*
X260221Y143532D01*
X260160Y143422D01*
X260133Y143339D01*
X260096Y143258D01*
X260066Y143136D01*
X260027Y143016D01*
X260015Y142929D01*
X259994Y142843D01*
X259982Y142673D01*
X259971Y142593D01*
X259973Y142557D01*
X259970Y142509D01*
X259970Y135912D01*
X254613Y130555D01*
X247037Y130555D01*
G37*
%LPD*%
%LPC*%
G36*
X168678Y449579D02*
X168678Y449579D01*
X161209Y452673D01*
X155493Y458389D01*
X152399Y465858D01*
X152399Y473942D01*
X155493Y481411D01*
X161209Y487127D01*
X168678Y490221D01*
X176762Y490221D01*
X184231Y487127D01*
X189947Y481411D01*
X193041Y473942D01*
X193041Y465858D01*
X189947Y458389D01*
X184231Y452673D01*
X176762Y449579D01*
X168678Y449579D01*
G37*
%LPD*%
%LPC*%
G36*
X122958Y449579D02*
X122958Y449579D01*
X115489Y452673D01*
X109773Y458389D01*
X106679Y465858D01*
X106679Y473942D01*
X109773Y481411D01*
X115489Y487127D01*
X122958Y490221D01*
X131042Y490221D01*
X138511Y487127D01*
X144227Y481411D01*
X147321Y473942D01*
X147321Y465858D01*
X144227Y458389D01*
X138511Y452673D01*
X131042Y449579D01*
X122958Y449579D01*
G37*
%LPD*%
%LPC*%
G36*
X383119Y296318D02*
X383119Y296318D01*
X381169Y297126D01*
X379676Y298619D01*
X378868Y300569D01*
X378868Y302681D01*
X379676Y304631D01*
X381169Y306124D01*
X383119Y306932D01*
X384224Y306932D01*
X384311Y306940D01*
X384399Y306939D01*
X384523Y306960D01*
X384649Y306972D01*
X384734Y306996D01*
X384820Y307011D01*
X384938Y307055D01*
X385059Y307090D01*
X385138Y307130D01*
X385220Y307161D01*
X385328Y307226D01*
X385440Y307283D01*
X385510Y307336D01*
X385586Y307382D01*
X385715Y307493D01*
X385779Y307543D01*
X385803Y307569D01*
X385840Y307601D01*
X511549Y433310D01*
X511605Y433378D01*
X511668Y433440D01*
X511741Y433543D01*
X511821Y433639D01*
X511864Y433716D01*
X511915Y433788D01*
X511967Y433903D01*
X512028Y434013D01*
X512055Y434097D01*
X512092Y434177D01*
X512122Y434300D01*
X512161Y434419D01*
X512173Y434506D01*
X512194Y434592D01*
X512206Y434762D01*
X512217Y434843D01*
X512215Y434878D01*
X512218Y434926D01*
X512218Y436031D01*
X513026Y437981D01*
X514519Y439474D01*
X516469Y440282D01*
X518581Y440282D01*
X520531Y439474D01*
X522024Y437981D01*
X522832Y436031D01*
X522832Y433919D01*
X522024Y431969D01*
X520531Y430476D01*
X518581Y429668D01*
X517476Y429668D01*
X517389Y429660D01*
X517301Y429661D01*
X517177Y429640D01*
X517051Y429628D01*
X516966Y429604D01*
X516880Y429589D01*
X516762Y429545D01*
X516641Y429510D01*
X516562Y429470D01*
X516480Y429439D01*
X516372Y429374D01*
X516260Y429317D01*
X516190Y429264D01*
X516114Y429218D01*
X515985Y429107D01*
X515921Y429057D01*
X515897Y429031D01*
X515860Y428999D01*
X390151Y303290D01*
X390095Y303222D01*
X390032Y303160D01*
X389959Y303057D01*
X389879Y302961D01*
X389836Y302884D01*
X389785Y302812D01*
X389733Y302697D01*
X389672Y302587D01*
X389645Y302503D01*
X389608Y302423D01*
X389578Y302300D01*
X389539Y302181D01*
X389527Y302094D01*
X389506Y302008D01*
X389494Y301838D01*
X389483Y301757D01*
X389485Y301722D01*
X389482Y301674D01*
X389482Y300569D01*
X388674Y298619D01*
X387181Y297126D01*
X385231Y296318D01*
X383119Y296318D01*
G37*
%LPD*%
%LPC*%
G36*
X133984Y248139D02*
X133984Y248139D01*
X128412Y250447D01*
X124147Y254712D01*
X121839Y260284D01*
X121839Y266316D01*
X124147Y271888D01*
X128412Y276153D01*
X133984Y278461D01*
X140016Y278461D01*
X145588Y276153D01*
X149853Y271888D01*
X152161Y266316D01*
X152161Y260284D01*
X149853Y254712D01*
X145588Y250447D01*
X140016Y248139D01*
X133984Y248139D01*
G37*
%LPD*%
%LPC*%
G36*
X133984Y204139D02*
X133984Y204139D01*
X128412Y206447D01*
X124147Y210712D01*
X121839Y216284D01*
X121839Y222316D01*
X124147Y227888D01*
X128412Y232153D01*
X133984Y234461D01*
X140016Y234461D01*
X145588Y232153D01*
X149853Y227888D01*
X152161Y222316D01*
X152161Y216284D01*
X149853Y210712D01*
X145588Y206447D01*
X140016Y204139D01*
X133984Y204139D01*
G37*
%LPD*%
%LPC*%
G36*
X619824Y281353D02*
X619824Y281353D01*
X615249Y283248D01*
X611748Y286749D01*
X609853Y291324D01*
X609853Y296276D01*
X611748Y300851D01*
X615249Y304352D01*
X619824Y306247D01*
X624776Y306247D01*
X629351Y304352D01*
X632852Y300851D01*
X634747Y296276D01*
X634747Y291324D01*
X632852Y286749D01*
X629351Y283248D01*
X624776Y281353D01*
X619824Y281353D01*
G37*
%LPD*%
%LPC*%
G36*
X619824Y246353D02*
X619824Y246353D01*
X615249Y248248D01*
X611748Y251749D01*
X609853Y256324D01*
X609853Y261276D01*
X611748Y265851D01*
X615249Y269352D01*
X619824Y271247D01*
X624776Y271247D01*
X629351Y269352D01*
X632852Y265851D01*
X634747Y261276D01*
X634747Y256324D01*
X632852Y251749D01*
X629351Y248248D01*
X624776Y246353D01*
X619824Y246353D01*
G37*
%LPD*%
%LPC*%
G36*
X316444Y401093D02*
X316444Y401093D01*
X314494Y401901D01*
X313001Y403394D01*
X312193Y405344D01*
X312193Y407456D01*
X313001Y409406D01*
X314494Y410899D01*
X316444Y411707D01*
X316471Y411707D01*
X316559Y411715D01*
X316647Y411714D01*
X316771Y411735D01*
X316896Y411747D01*
X316981Y411771D01*
X317068Y411786D01*
X317186Y411830D01*
X317307Y411865D01*
X317385Y411905D01*
X317468Y411936D01*
X317576Y412001D01*
X317688Y412058D01*
X317758Y412111D01*
X317833Y412157D01*
X317962Y412268D01*
X318026Y412318D01*
X318050Y412344D01*
X318087Y412376D01*
X325720Y420009D01*
X325776Y420077D01*
X325839Y420138D01*
X325912Y420241D01*
X325992Y420338D01*
X326035Y420415D01*
X326086Y420487D01*
X326138Y420602D01*
X326199Y420712D01*
X326226Y420795D01*
X326263Y420876D01*
X326293Y420998D01*
X326332Y421118D01*
X326344Y421205D01*
X326365Y421291D01*
X326377Y421461D01*
X326388Y421541D01*
X326386Y421577D01*
X326389Y421625D01*
X326389Y427159D01*
X326381Y427247D01*
X326382Y427335D01*
X326375Y427381D01*
X326375Y427385D01*
X326372Y427399D01*
X326361Y427459D01*
X326349Y427585D01*
X326325Y427669D01*
X326310Y427756D01*
X326266Y427874D01*
X326231Y427995D01*
X326191Y428073D01*
X326160Y428156D01*
X326095Y428264D01*
X326038Y428376D01*
X325985Y428446D01*
X325939Y428521D01*
X325828Y428650D01*
X325778Y428715D01*
X325752Y428739D01*
X325720Y428775D01*
X325701Y428794D01*
X324893Y430744D01*
X324893Y432856D01*
X325701Y434806D01*
X327194Y436299D01*
X329144Y437107D01*
X331256Y437107D01*
X333206Y436299D01*
X334699Y434806D01*
X335507Y432856D01*
X335507Y430744D01*
X334699Y428794D01*
X334680Y428775D01*
X334624Y428707D01*
X334561Y428646D01*
X334488Y428543D01*
X334408Y428446D01*
X334365Y428369D01*
X334314Y428297D01*
X334262Y428182D01*
X334201Y428072D01*
X334174Y427989D01*
X334137Y427909D01*
X334107Y427786D01*
X334068Y427667D01*
X334056Y427579D01*
X334035Y427494D01*
X334023Y427331D01*
X334017Y427293D01*
X334017Y427280D01*
X334012Y427243D01*
X334014Y427208D01*
X334011Y427159D01*
X334011Y418342D01*
X333431Y416941D01*
X323476Y406987D01*
X323420Y406919D01*
X323357Y406858D01*
X323284Y406755D01*
X323204Y406658D01*
X323161Y406581D01*
X323110Y406509D01*
X323058Y406394D01*
X322997Y406284D01*
X322970Y406201D01*
X322933Y406120D01*
X322903Y405998D01*
X322864Y405878D01*
X322852Y405791D01*
X322831Y405705D01*
X322819Y405535D01*
X322808Y405455D01*
X322810Y405419D01*
X322807Y405371D01*
X322807Y405344D01*
X321999Y403394D01*
X320506Y401901D01*
X318556Y401093D01*
X316444Y401093D01*
G37*
%LPD*%
%LPC*%
G36*
X303744Y464593D02*
X303744Y464593D01*
X301794Y465401D01*
X300301Y466894D01*
X299493Y468844D01*
X299493Y470956D01*
X300301Y472906D01*
X301794Y474399D01*
X303744Y475207D01*
X305856Y475207D01*
X307806Y474399D01*
X307825Y474380D01*
X307893Y474324D01*
X307954Y474261D01*
X308057Y474188D01*
X308154Y474108D01*
X308231Y474065D01*
X308303Y474014D01*
X308418Y473962D01*
X308528Y473901D01*
X308611Y473874D01*
X308691Y473837D01*
X308814Y473807D01*
X308933Y473768D01*
X309021Y473756D01*
X309106Y473735D01*
X309276Y473723D01*
X309357Y473712D01*
X309392Y473714D01*
X309441Y473711D01*
X325559Y473711D01*
X325647Y473719D01*
X325735Y473718D01*
X325859Y473739D01*
X325985Y473751D01*
X326069Y473775D01*
X326156Y473790D01*
X326274Y473834D01*
X326395Y473869D01*
X326473Y473909D01*
X326556Y473940D01*
X326664Y474005D01*
X326776Y474062D01*
X326846Y474115D01*
X326921Y474161D01*
X327050Y474272D01*
X327115Y474322D01*
X327139Y474348D01*
X327175Y474380D01*
X327194Y474399D01*
X329144Y475207D01*
X331256Y475207D01*
X333206Y474399D01*
X334699Y472906D01*
X335507Y470956D01*
X335507Y468844D01*
X334699Y466894D01*
X333206Y465401D01*
X331256Y464593D01*
X329144Y464593D01*
X327194Y465401D01*
X327175Y465420D01*
X327107Y465476D01*
X327046Y465539D01*
X326943Y465612D01*
X326846Y465692D01*
X326769Y465735D01*
X326697Y465786D01*
X326582Y465838D01*
X326472Y465899D01*
X326389Y465926D01*
X326309Y465963D01*
X326186Y465993D01*
X326067Y466032D01*
X325979Y466044D01*
X325894Y466065D01*
X325724Y466077D01*
X325643Y466088D01*
X325608Y466086D01*
X325559Y466089D01*
X309441Y466089D01*
X309353Y466081D01*
X309265Y466082D01*
X309141Y466061D01*
X309015Y466049D01*
X308931Y466025D01*
X308844Y466010D01*
X308726Y465966D01*
X308605Y465931D01*
X308527Y465891D01*
X308444Y465860D01*
X308336Y465795D01*
X308224Y465738D01*
X308154Y465685D01*
X308079Y465639D01*
X307950Y465528D01*
X307885Y465478D01*
X307861Y465452D01*
X307825Y465420D01*
X307806Y465401D01*
X305856Y464593D01*
X303744Y464593D01*
G37*
%LPD*%
%LPC*%
G36*
X221637Y155955D02*
X221637Y155955D01*
X216280Y161312D01*
X216280Y168888D01*
X221637Y174245D01*
X229213Y174245D01*
X234570Y168888D01*
X234570Y161312D01*
X229213Y155955D01*
X221637Y155955D01*
G37*
%LPD*%
%LPC*%
G36*
X196237Y155955D02*
X196237Y155955D01*
X190880Y161312D01*
X190880Y168888D01*
X196237Y174245D01*
X203813Y174245D01*
X209170Y168888D01*
X209170Y161312D01*
X203813Y155955D01*
X196237Y155955D01*
G37*
%LPD*%
%LPC*%
G36*
X221637Y130555D02*
X221637Y130555D01*
X216280Y135912D01*
X216280Y143488D01*
X221637Y148845D01*
X229213Y148845D01*
X234570Y143488D01*
X234570Y135912D01*
X229213Y130555D01*
X221637Y130555D01*
G37*
%LPD*%
%LPC*%
G36*
X373594Y502693D02*
X373594Y502693D01*
X371644Y503501D01*
X370151Y504994D01*
X369343Y506944D01*
X369343Y509056D01*
X370151Y511006D01*
X371644Y512499D01*
X373594Y513307D01*
X375706Y513307D01*
X377656Y512499D01*
X379149Y511006D01*
X379957Y509056D01*
X379957Y506944D01*
X379149Y504994D01*
X377656Y503501D01*
X375706Y502693D01*
X373594Y502693D01*
G37*
%LPD*%
%LPC*%
G36*
X373594Y429668D02*
X373594Y429668D01*
X371644Y430476D01*
X370151Y431969D01*
X369343Y433919D01*
X369343Y436031D01*
X370151Y437981D01*
X371644Y439474D01*
X373594Y440282D01*
X375706Y440282D01*
X377656Y439474D01*
X379149Y437981D01*
X379957Y436031D01*
X379957Y433919D01*
X379149Y431969D01*
X377656Y430476D01*
X375706Y429668D01*
X373594Y429668D01*
G37*
%LPD*%
%LPC*%
G36*
X202564Y142239D02*
X202564Y142239D01*
X202564Y149861D01*
X204234Y149861D01*
X210186Y143909D01*
X210186Y142239D01*
X202564Y142239D01*
G37*
%LPD*%
%LPC*%
G36*
X189864Y142239D02*
X189864Y142239D01*
X189864Y143909D01*
X195816Y149861D01*
X197486Y149861D01*
X197486Y142239D01*
X189864Y142239D01*
G37*
%LPD*%
%LPC*%
G36*
X202564Y129539D02*
X202564Y129539D01*
X202564Y137161D01*
X210186Y137161D01*
X210186Y135491D01*
X204234Y129539D01*
X202564Y129539D01*
G37*
%LPD*%
%LPC*%
G36*
X195816Y129539D02*
X195816Y129539D01*
X189864Y135491D01*
X189864Y137161D01*
X197486Y137161D01*
X197486Y129539D01*
X195816Y129539D01*
G37*
%LPD*%
D10*
X622300Y188800D03*
X622300Y223800D03*
X622300Y258800D03*
X622300Y293800D03*
X622300Y328800D03*
X622300Y153800D03*
D11*
X250825Y165100D03*
D12*
X225425Y165100D03*
X200025Y165100D03*
X250825Y139700D03*
X225425Y139700D03*
X200025Y139700D03*
D13*
X361950Y273050D03*
X304800Y285750D03*
X266700Y330200D03*
X234950Y279400D03*
X241300Y241300D03*
X279400Y241300D03*
X285750Y215900D03*
X444500Y171450D03*
X495300Y171450D03*
X546100Y171450D03*
X393700Y196850D03*
X361950Y355600D03*
X514350Y336550D03*
X336550Y381000D03*
X508000Y381000D03*
X441325Y431800D03*
X444500Y511175D03*
X409575Y469900D03*
D14*
X266700Y304800D02*
X317500Y254000D01*
D13*
X266700Y304800D03*
X317500Y254000D03*
X330200Y431800D03*
D15*
X330200Y419100D01*
X317500Y406400D01*
D13*
X317500Y406400D03*
D15*
X263525Y152400D02*
X250825Y139700D01*
X263525Y269875D02*
X254000Y279400D01*
X263525Y269875D02*
X263525Y152400D01*
D13*
X254000Y279400D03*
X190500Y355600D03*
D14*
X203200Y355600D02*
X342900Y215900D01*
X203200Y355600D02*
X190500Y355600D01*
D13*
X342900Y215900D03*
D14*
X384175Y301625D02*
X517525Y434975D01*
D13*
X384175Y301625D03*
X517525Y434975D03*
X330200Y469900D03*
D15*
X304800Y469900D01*
D13*
X304800Y469900D03*
X355600Y508000D03*
D15*
X355600Y520700D02*
X374650Y539750D01*
X355600Y520700D02*
X355600Y508000D01*
X590550Y539750D02*
X622300Y508000D01*
X622300Y328800D01*
X590550Y539750D02*
X374650Y539750D01*
D14*
X620600Y190500D02*
X622300Y188800D01*
X469900Y190500D02*
X330200Y330200D01*
D13*
X330200Y330200D03*
D14*
X469900Y190500D02*
X620600Y190500D01*
X641350Y172850D02*
X622300Y153800D01*
X641350Y172850D02*
X641350Y196850D01*
D13*
X456938Y330462D03*
D14*
X629080Y209120D02*
X641350Y196850D01*
X578280Y209120D02*
X456938Y330462D01*
X578280Y209120D02*
X629080Y209120D01*
D13*
X374650Y508000D03*
X374650Y434975D03*
M02*
