G04 EAGLE Gerber X2 export*
%TF.Part,Single*%
%TF.FileFunction,Paste,Top*%
%TF.FilePolarity,Positive*%
%TF.GenerationSoftware,Autodesk,EAGLE,9.2.2*%
%TF.CreationDate,2018-11-13T01:57:23Z*%
G75*
%MOMM*%
%FSLAX34Y34*%
%LPD*%
%INSolderpaste Top*%
%AMOC8*
5,1,8,0,0,1.08239X$1,22.5*%
G01*
%ADD10R,1.100000X1.400000*%
%ADD11R,1.400000X1.100000*%
%ADD12R,2.400000X2.000000*%
%ADD13R,2.308000X0.500000*%
%ADD14R,1.420000X0.890000*%
%ADD15R,0.890000X1.420000*%
%ADD16R,2.800000X2.400000*%
%ADD17R,0.800000X0.800000*%
%ADD18R,0.800000X0.900000*%
%ADD19R,1.550000X1.300000*%
%ADD20R,1.168400X1.600200*%
%ADD21R,1.000000X1.400000*%
%ADD22R,1.500000X0.500000*%
%ADD23R,0.500000X1.500000*%
%ADD24R,9.000000X10.350000*%
%ADD25R,3.500000X0.950000*%
%ADD26R,5.600000X2.100000*%


D10*
X327500Y215900D03*
X307500Y215900D03*
X510700Y190500D03*
X530700Y190500D03*
X459900Y190500D03*
X479900Y190500D03*
D11*
X419100Y187800D03*
X419100Y167800D03*
D10*
X378300Y381000D03*
X358300Y381000D03*
X485300Y317500D03*
X505300Y317500D03*
X294800Y381000D03*
X314800Y381000D03*
X302100Y330200D03*
X282100Y330200D03*
D12*
X162000Y285300D03*
D13*
X167640Y257300D03*
X167640Y249300D03*
X167640Y241300D03*
X167640Y233300D03*
X167640Y225300D03*
D12*
X107000Y285300D03*
X162000Y197300D03*
X107000Y197300D03*
D14*
X266700Y447500D03*
X266700Y466900D03*
D15*
X206200Y304800D03*
X225600Y304800D03*
D16*
X127000Y526900D03*
X127000Y412900D03*
X188000Y526900D03*
X188000Y412900D03*
D17*
X106800Y330200D03*
X121800Y330200D03*
X106800Y381000D03*
X121800Y381000D03*
D18*
X555600Y454500D03*
X536600Y454500D03*
X546100Y433500D03*
D10*
X205900Y266700D03*
X225900Y266700D03*
X205900Y228600D03*
X225900Y228600D03*
X536100Y381000D03*
X556100Y381000D03*
X441800Y381000D03*
X421800Y381000D03*
X556100Y492125D03*
X536100Y492125D03*
X142400Y330200D03*
X162400Y330200D03*
X142400Y377825D03*
X162400Y377825D03*
X619600Y381000D03*
X599600Y381000D03*
D19*
X369950Y129900D03*
X290450Y129900D03*
X369950Y174900D03*
X290450Y174900D03*
D20*
X474980Y381000D03*
X490220Y381000D03*
X210820Y377825D03*
X195580Y377825D03*
D21*
X600100Y433500D03*
X619100Y433500D03*
X609600Y455500D03*
D22*
G36*
X331475Y270207D02*
X320869Y259601D01*
X317333Y263137D01*
X327939Y273743D01*
X331475Y270207D01*
G37*
G36*
X337131Y264550D02*
X326525Y253944D01*
X322989Y257480D01*
X333595Y268086D01*
X337131Y264550D01*
G37*
G36*
X342788Y258893D02*
X332182Y248287D01*
X328646Y251823D01*
X339252Y262429D01*
X342788Y258893D01*
G37*
G36*
X348445Y253237D02*
X337839Y242631D01*
X334303Y246167D01*
X344909Y256773D01*
X348445Y253237D01*
G37*
G36*
X354102Y247580D02*
X343496Y236974D01*
X339960Y240510D01*
X350566Y251116D01*
X354102Y247580D01*
G37*
G36*
X359759Y241923D02*
X349153Y231317D01*
X345617Y234853D01*
X356223Y245459D01*
X359759Y241923D01*
G37*
G36*
X365416Y236266D02*
X354810Y225660D01*
X351274Y229196D01*
X361880Y239802D01*
X365416Y236266D01*
G37*
G36*
X371073Y230609D02*
X360467Y220003D01*
X356931Y223539D01*
X367537Y234145D01*
X371073Y230609D01*
G37*
G36*
X376729Y224952D02*
X366123Y214346D01*
X362587Y217882D01*
X373193Y228488D01*
X376729Y224952D01*
G37*
G36*
X382386Y219295D02*
X371780Y208689D01*
X368244Y212225D01*
X378850Y222831D01*
X382386Y219295D01*
G37*
G36*
X388043Y213639D02*
X377437Y203033D01*
X373901Y206569D01*
X384507Y217175D01*
X388043Y213639D01*
G37*
D23*
G36*
X413499Y206569D02*
X409963Y203033D01*
X399357Y213639D01*
X402893Y217175D01*
X413499Y206569D01*
G37*
G36*
X419156Y212225D02*
X415620Y208689D01*
X405014Y219295D01*
X408550Y222831D01*
X419156Y212225D01*
G37*
G36*
X424813Y217882D02*
X421277Y214346D01*
X410671Y224952D01*
X414207Y228488D01*
X424813Y217882D01*
G37*
G36*
X430469Y223539D02*
X426933Y220003D01*
X416327Y230609D01*
X419863Y234145D01*
X430469Y223539D01*
G37*
G36*
X436126Y229196D02*
X432590Y225660D01*
X421984Y236266D01*
X425520Y239802D01*
X436126Y229196D01*
G37*
G36*
X441783Y234853D02*
X438247Y231317D01*
X427641Y241923D01*
X431177Y245459D01*
X441783Y234853D01*
G37*
G36*
X447440Y240510D02*
X443904Y236974D01*
X433298Y247580D01*
X436834Y251116D01*
X447440Y240510D01*
G37*
G36*
X453097Y246167D02*
X449561Y242631D01*
X438955Y253237D01*
X442491Y256773D01*
X453097Y246167D01*
G37*
G36*
X458754Y251823D02*
X455218Y248287D01*
X444612Y258893D01*
X448148Y262429D01*
X458754Y251823D01*
G37*
G36*
X464411Y257480D02*
X460875Y253944D01*
X450269Y264550D01*
X453805Y268086D01*
X464411Y257480D01*
G37*
G36*
X470067Y263137D02*
X466531Y259601D01*
X455925Y270207D01*
X459461Y273743D01*
X470067Y263137D01*
G37*
D22*
G36*
X470067Y295663D02*
X459461Y285057D01*
X455925Y288593D01*
X466531Y299199D01*
X470067Y295663D01*
G37*
G36*
X464411Y301320D02*
X453805Y290714D01*
X450269Y294250D01*
X460875Y304856D01*
X464411Y301320D01*
G37*
G36*
X458754Y306977D02*
X448148Y296371D01*
X444612Y299907D01*
X455218Y310513D01*
X458754Y306977D01*
G37*
G36*
X453097Y312633D02*
X442491Y302027D01*
X438955Y305563D01*
X449561Y316169D01*
X453097Y312633D01*
G37*
G36*
X447440Y318290D02*
X436834Y307684D01*
X433298Y311220D01*
X443904Y321826D01*
X447440Y318290D01*
G37*
G36*
X441783Y323947D02*
X431177Y313341D01*
X427641Y316877D01*
X438247Y327483D01*
X441783Y323947D01*
G37*
G36*
X436126Y329604D02*
X425520Y318998D01*
X421984Y322534D01*
X432590Y333140D01*
X436126Y329604D01*
G37*
G36*
X430469Y335261D02*
X419863Y324655D01*
X416327Y328191D01*
X426933Y338797D01*
X430469Y335261D01*
G37*
G36*
X424813Y340918D02*
X414207Y330312D01*
X410671Y333848D01*
X421277Y344454D01*
X424813Y340918D01*
G37*
G36*
X419156Y346575D02*
X408550Y335969D01*
X405014Y339505D01*
X415620Y350111D01*
X419156Y346575D01*
G37*
G36*
X413499Y352231D02*
X402893Y341625D01*
X399357Y345161D01*
X409963Y355767D01*
X413499Y352231D01*
G37*
D23*
G36*
X388043Y345161D02*
X384507Y341625D01*
X373901Y352231D01*
X377437Y355767D01*
X388043Y345161D01*
G37*
G36*
X382386Y339505D02*
X378850Y335969D01*
X368244Y346575D01*
X371780Y350111D01*
X382386Y339505D01*
G37*
G36*
X376729Y333848D02*
X373193Y330312D01*
X362587Y340918D01*
X366123Y344454D01*
X376729Y333848D01*
G37*
G36*
X371073Y328191D02*
X367537Y324655D01*
X356931Y335261D01*
X360467Y338797D01*
X371073Y328191D01*
G37*
G36*
X365416Y322534D02*
X361880Y318998D01*
X351274Y329604D01*
X354810Y333140D01*
X365416Y322534D01*
G37*
G36*
X359759Y316877D02*
X356223Y313341D01*
X345617Y323947D01*
X349153Y327483D01*
X359759Y316877D01*
G37*
G36*
X354102Y311220D02*
X350566Y307684D01*
X339960Y318290D01*
X343496Y321826D01*
X354102Y311220D01*
G37*
G36*
X348445Y305563D02*
X344909Y302027D01*
X334303Y312633D01*
X337839Y316169D01*
X348445Y305563D01*
G37*
G36*
X342788Y299907D02*
X339252Y296371D01*
X328646Y306977D01*
X332182Y310513D01*
X342788Y299907D01*
G37*
G36*
X337131Y294250D02*
X333595Y290714D01*
X322989Y301320D01*
X326525Y304856D01*
X337131Y294250D01*
G37*
G36*
X331475Y288593D02*
X327939Y285057D01*
X317333Y295663D01*
X320869Y299199D01*
X331475Y288593D01*
G37*
D24*
X428700Y469900D03*
D25*
X331200Y444500D03*
X331200Y495300D03*
D26*
X447800Y139700D03*
X542800Y139700D03*
M02*
