G04 EAGLE Gerber X2 export*
%TF.Part,Single*%
%TF.FileFunction,Soldermask,Top,1*%
%TF.FilePolarity,Positive*%
%TF.GenerationSoftware,Autodesk,EAGLE,9.2.2*%
%TF.CreationDate,2018-11-13T01:57:23Z*%
G75*
%MOMM*%
%FSLAX34Y34*%
%LPD*%
%INSoldermask Top*%
%AMOC8*
5,1,8,0,0,1.08239X$1,22.5*%
G01*
%ADD10R,1.303200X1.603200*%
%ADD11R,1.603200X1.303200*%
%ADD12R,2.603200X2.203200*%
%ADD13R,2.511200X0.703200*%
%ADD14C,1.203200*%
%ADD15R,1.623200X1.093200*%
%ADD16R,1.093200X1.623200*%
%ADD17R,3.003200X2.603200*%
%ADD18C,2.235200*%
%ADD19C,2.387600*%
%ADD20R,1.003200X1.003200*%
%ADD21R,1.003200X1.103200*%
%ADD22R,1.753200X1.503200*%
%ADD23R,1.371600X1.803400*%
%ADD24R,0.152400X1.828800*%
%ADD25C,1.727200*%
%ADD26P,1.869504X8X202.500000*%
%ADD27R,1.203200X1.603200*%
%ADD28R,1.703200X0.703200*%
%ADD29R,0.703200X1.703200*%
%ADD30R,9.203200X10.553200*%
%ADD31R,3.703200X1.153200*%
%ADD32R,5.803200X2.303200*%
%ADD33C,0.959600*%


D10*
X327500Y215900D03*
X307500Y215900D03*
X510700Y190500D03*
X530700Y190500D03*
X459900Y190500D03*
X479900Y190500D03*
D11*
X419100Y187800D03*
X419100Y167800D03*
D10*
X378300Y381000D03*
X358300Y381000D03*
X485300Y317500D03*
X505300Y317500D03*
X294800Y381000D03*
X314800Y381000D03*
X302100Y330200D03*
X282100Y330200D03*
D12*
X162000Y285300D03*
D13*
X167640Y257300D03*
X167640Y249300D03*
X167640Y241300D03*
X167640Y233300D03*
X167640Y225300D03*
D12*
X107000Y285300D03*
X162000Y197300D03*
X107000Y197300D03*
D14*
X137000Y263300D03*
X137000Y219300D03*
D15*
X266700Y447500D03*
X266700Y466900D03*
D16*
X206200Y304800D03*
X225600Y304800D03*
D17*
X127000Y526900D03*
X127000Y412900D03*
X188000Y526900D03*
X188000Y412900D03*
D18*
X127000Y469900D03*
X172720Y469900D03*
D19*
X622300Y188800D03*
X622300Y223800D03*
X622300Y258800D03*
X622300Y293800D03*
X622300Y328800D03*
X622300Y153800D03*
D20*
X106800Y330200D03*
X121800Y330200D03*
X106800Y381000D03*
X121800Y381000D03*
D21*
X555600Y454500D03*
X536600Y454500D03*
X546100Y433500D03*
D10*
X205900Y266700D03*
X225900Y266700D03*
X205900Y228600D03*
X225900Y228600D03*
X536100Y381000D03*
X556100Y381000D03*
X441800Y381000D03*
X421800Y381000D03*
X556100Y492125D03*
X536100Y492125D03*
X142400Y330200D03*
X162400Y330200D03*
X142400Y377825D03*
X162400Y377825D03*
X619600Y381000D03*
X599600Y381000D03*
D22*
X369950Y129900D03*
X290450Y129900D03*
X369950Y174900D03*
X290450Y174900D03*
D23*
X474980Y381000D03*
X490220Y381000D03*
D24*
X482600Y381000D03*
D23*
X210820Y377825D03*
X195580Y377825D03*
D24*
X203200Y377825D03*
D25*
X250825Y165100D03*
D26*
X225425Y165100D03*
X200025Y165100D03*
X250825Y139700D03*
X225425Y139700D03*
X200025Y139700D03*
D27*
X600100Y433500D03*
X619100Y433500D03*
X609600Y455500D03*
D28*
G36*
X332911Y270207D02*
X320869Y258165D01*
X315897Y263137D01*
X327939Y275179D01*
X332911Y270207D01*
G37*
G36*
X338567Y264550D02*
X326525Y252508D01*
X321553Y257480D01*
X333595Y269522D01*
X338567Y264550D01*
G37*
G36*
X344224Y258893D02*
X332182Y246851D01*
X327210Y251823D01*
X339252Y263865D01*
X344224Y258893D01*
G37*
G36*
X349881Y253237D02*
X337839Y241195D01*
X332867Y246167D01*
X344909Y258209D01*
X349881Y253237D01*
G37*
G36*
X355538Y247580D02*
X343496Y235538D01*
X338524Y240510D01*
X350566Y252552D01*
X355538Y247580D01*
G37*
G36*
X361195Y241923D02*
X349153Y229881D01*
X344181Y234853D01*
X356223Y246895D01*
X361195Y241923D01*
G37*
G36*
X366852Y236266D02*
X354810Y224224D01*
X349838Y229196D01*
X361880Y241238D01*
X366852Y236266D01*
G37*
G36*
X372509Y230609D02*
X360467Y218567D01*
X355495Y223539D01*
X367537Y235581D01*
X372509Y230609D01*
G37*
G36*
X378165Y224952D02*
X366123Y212910D01*
X361151Y217882D01*
X373193Y229924D01*
X378165Y224952D01*
G37*
G36*
X383822Y219295D02*
X371780Y207253D01*
X366808Y212225D01*
X378850Y224267D01*
X383822Y219295D01*
G37*
G36*
X389479Y213639D02*
X377437Y201597D01*
X372465Y206569D01*
X384507Y218611D01*
X389479Y213639D01*
G37*
D29*
G36*
X414935Y206569D02*
X409963Y201597D01*
X397921Y213639D01*
X402893Y218611D01*
X414935Y206569D01*
G37*
G36*
X420592Y212225D02*
X415620Y207253D01*
X403578Y219295D01*
X408550Y224267D01*
X420592Y212225D01*
G37*
G36*
X426249Y217882D02*
X421277Y212910D01*
X409235Y224952D01*
X414207Y229924D01*
X426249Y217882D01*
G37*
G36*
X431905Y223539D02*
X426933Y218567D01*
X414891Y230609D01*
X419863Y235581D01*
X431905Y223539D01*
G37*
G36*
X437562Y229196D02*
X432590Y224224D01*
X420548Y236266D01*
X425520Y241238D01*
X437562Y229196D01*
G37*
G36*
X443219Y234853D02*
X438247Y229881D01*
X426205Y241923D01*
X431177Y246895D01*
X443219Y234853D01*
G37*
G36*
X448876Y240510D02*
X443904Y235538D01*
X431862Y247580D01*
X436834Y252552D01*
X448876Y240510D01*
G37*
G36*
X454533Y246167D02*
X449561Y241195D01*
X437519Y253237D01*
X442491Y258209D01*
X454533Y246167D01*
G37*
G36*
X460190Y251823D02*
X455218Y246851D01*
X443176Y258893D01*
X448148Y263865D01*
X460190Y251823D01*
G37*
G36*
X465847Y257480D02*
X460875Y252508D01*
X448833Y264550D01*
X453805Y269522D01*
X465847Y257480D01*
G37*
G36*
X471503Y263137D02*
X466531Y258165D01*
X454489Y270207D01*
X459461Y275179D01*
X471503Y263137D01*
G37*
D28*
G36*
X471503Y295663D02*
X459461Y283621D01*
X454489Y288593D01*
X466531Y300635D01*
X471503Y295663D01*
G37*
G36*
X465847Y301320D02*
X453805Y289278D01*
X448833Y294250D01*
X460875Y306292D01*
X465847Y301320D01*
G37*
G36*
X460190Y306977D02*
X448148Y294935D01*
X443176Y299907D01*
X455218Y311949D01*
X460190Y306977D01*
G37*
G36*
X454533Y312633D02*
X442491Y300591D01*
X437519Y305563D01*
X449561Y317605D01*
X454533Y312633D01*
G37*
G36*
X448876Y318290D02*
X436834Y306248D01*
X431862Y311220D01*
X443904Y323262D01*
X448876Y318290D01*
G37*
G36*
X443219Y323947D02*
X431177Y311905D01*
X426205Y316877D01*
X438247Y328919D01*
X443219Y323947D01*
G37*
G36*
X437562Y329604D02*
X425520Y317562D01*
X420548Y322534D01*
X432590Y334576D01*
X437562Y329604D01*
G37*
G36*
X431905Y335261D02*
X419863Y323219D01*
X414891Y328191D01*
X426933Y340233D01*
X431905Y335261D01*
G37*
G36*
X426249Y340918D02*
X414207Y328876D01*
X409235Y333848D01*
X421277Y345890D01*
X426249Y340918D01*
G37*
G36*
X420592Y346575D02*
X408550Y334533D01*
X403578Y339505D01*
X415620Y351547D01*
X420592Y346575D01*
G37*
G36*
X414935Y352231D02*
X402893Y340189D01*
X397921Y345161D01*
X409963Y357203D01*
X414935Y352231D01*
G37*
D29*
G36*
X389479Y345161D02*
X384507Y340189D01*
X372465Y352231D01*
X377437Y357203D01*
X389479Y345161D01*
G37*
G36*
X383822Y339505D02*
X378850Y334533D01*
X366808Y346575D01*
X371780Y351547D01*
X383822Y339505D01*
G37*
G36*
X378165Y333848D02*
X373193Y328876D01*
X361151Y340918D01*
X366123Y345890D01*
X378165Y333848D01*
G37*
G36*
X372509Y328191D02*
X367537Y323219D01*
X355495Y335261D01*
X360467Y340233D01*
X372509Y328191D01*
G37*
G36*
X366852Y322534D02*
X361880Y317562D01*
X349838Y329604D01*
X354810Y334576D01*
X366852Y322534D01*
G37*
G36*
X361195Y316877D02*
X356223Y311905D01*
X344181Y323947D01*
X349153Y328919D01*
X361195Y316877D01*
G37*
G36*
X355538Y311220D02*
X350566Y306248D01*
X338524Y318290D01*
X343496Y323262D01*
X355538Y311220D01*
G37*
G36*
X349881Y305563D02*
X344909Y300591D01*
X332867Y312633D01*
X337839Y317605D01*
X349881Y305563D01*
G37*
G36*
X344224Y299907D02*
X339252Y294935D01*
X327210Y306977D01*
X332182Y311949D01*
X344224Y299907D01*
G37*
G36*
X338567Y294250D02*
X333595Y289278D01*
X321553Y301320D01*
X326525Y306292D01*
X338567Y294250D01*
G37*
G36*
X332911Y288593D02*
X327939Y283621D01*
X315897Y295663D01*
X320869Y300635D01*
X332911Y288593D01*
G37*
D30*
X428700Y469900D03*
D31*
X331200Y444500D03*
X331200Y495300D03*
D32*
X447800Y139700D03*
X542800Y139700D03*
D33*
X361950Y273050D03*
X304800Y285750D03*
X266700Y330200D03*
X234950Y279400D03*
X241300Y241300D03*
X279400Y241300D03*
X285750Y215900D03*
X444500Y171450D03*
X495300Y171450D03*
X546100Y171450D03*
X393700Y196850D03*
X361950Y355600D03*
X514350Y336550D03*
X336550Y381000D03*
X508000Y381000D03*
X441325Y431800D03*
X444500Y511175D03*
X409575Y469900D03*
X266700Y304800D03*
X317500Y254000D03*
X330200Y431800D03*
X317500Y406400D03*
X254000Y279400D03*
X190500Y355600D03*
X342900Y215900D03*
X384175Y301625D03*
X517525Y434975D03*
X330200Y469900D03*
X304800Y469900D03*
X355600Y508000D03*
X330200Y330200D03*
X456938Y330462D03*
X374650Y508000D03*
X374650Y434975D03*
M02*
