M48
;GenerationSoftware,Autodesk,EAGLE,9.2.2*%
;CreationDate,2018-11-13T01:57:22Z*%
FMAT,2
ICI,OFF
METRIC,TZ,000.000
T4C0.350
T3C1.000
T2C1.016
T1C2.032
%
G90
M71
T1
X12700Y46990
X17272Y46990
T2
X20003Y13970
X25082Y16510
X22542Y16510
X20003Y16510
X25082Y13970
X22542Y13970
T3
X13700Y26330
X13700Y21930
X62230Y18880
X62230Y22380
X62230Y25880
X62230Y29380
X62230Y32880
X62230Y15380
T4
X44450Y51117
X40958Y46990
X26670Y30480
X31750Y25400
X33020Y43180
X31750Y40640
X25400Y27940
X19050Y35560
X34290Y21590
X28575Y21590
X51752Y43498
X33020Y46990
X30480Y46990
X35560Y50800
X33020Y33020
X45694Y33046
X37465Y50800
X37465Y43498
X36195Y27305
X30480Y28575
X26670Y33020
X23495Y27940
X24130Y24130
X27940Y24130
X44450Y17145
X49530Y17145
X54610Y17145
X38418Y30162
X39370Y19685
X36195Y35560
X51435Y33655
X33655Y38100
X50800Y38100
X44132Y43180
M30